<mxfile host="app.diagrams.net" agent="Mozilla/5.0 (Windows NT 10.0; Win64; x64) AppleWebKit/537.36 (KHTML, like Gecko) Chrome/127.0.0.0 Safari/537.36" version="24.7.6">
  <diagram name="Seite-1" id="gQntdtFDfgGsFMMkXqFd">
    <mxGraphModel dx="2868" dy="1476" grid="1" gridSize="10" guides="1" tooltips="1" connect="1" arrows="1" fold="1" page="1" pageScale="1" pageWidth="5000" pageHeight="5000" math="0" shadow="0">
      <root>
        <mxCell id="0" />
        <mxCell id="1" parent="0" />
        <mxCell id="P4btZg3QqWiz5SnPCTn8-59" style="edgeStyle=orthogonalEdgeStyle;shape=connector;rounded=0;orthogonalLoop=1;jettySize=auto;html=1;exitX=1;exitY=0.5;exitDx=0;exitDy=0;entryX=0;entryY=0.5;entryDx=0;entryDy=0;strokeColor=default;align=center;verticalAlign=middle;fontFamily=Helvetica;fontSize=11;fontColor=default;labelBackgroundColor=default;endArrow=none;endFill=0;" edge="1" parent="1" source="P4btZg3QqWiz5SnPCTn8-7" target="P4btZg3QqWiz5SnPCTn8-58">
          <mxGeometry relative="1" as="geometry" />
        </mxCell>
        <mxCell id="P4btZg3QqWiz5SnPCTn8-7" value="E-Course" style="rounded=0;whiteSpace=wrap;html=1;" vertex="1" parent="1">
          <mxGeometry x="600" y="360" width="120" height="40" as="geometry" />
        </mxCell>
        <mxCell id="P4btZg3QqWiz5SnPCTn8-8" value="Learning Modules" style="rounded=0;whiteSpace=wrap;html=1;" vertex="1" parent="1">
          <mxGeometry x="1080" y="360" width="120" height="40" as="geometry" />
        </mxCell>
        <mxCell id="P4btZg3QqWiz5SnPCTn8-9" value="Learning Objects" style="rounded=0;whiteSpace=wrap;html=1;" vertex="1" parent="1">
          <mxGeometry x="1560" y="460" width="120" height="40" as="geometry" />
        </mxCell>
        <mxCell id="P4btZg3QqWiz5SnPCTn8-68" style="edgeStyle=orthogonalEdgeStyle;shape=connector;rounded=0;orthogonalLoop=1;jettySize=auto;html=1;exitX=1;exitY=0.5;exitDx=0;exitDy=0;entryX=0;entryY=0.5;entryDx=0;entryDy=0;strokeColor=default;align=center;verticalAlign=middle;fontFamily=Helvetica;fontSize=11;fontColor=default;labelBackgroundColor=default;endArrow=none;endFill=0;" edge="1" parent="1" source="P4btZg3QqWiz5SnPCTn8-10" target="P4btZg3QqWiz5SnPCTn8-67">
          <mxGeometry relative="1" as="geometry" />
        </mxCell>
        <mxCell id="P4btZg3QqWiz5SnPCTn8-10" value="Test Modules" style="rounded=0;whiteSpace=wrap;html=1;" vertex="1" parent="1">
          <mxGeometry x="120" y="360" width="120" height="40" as="geometry" />
        </mxCell>
        <mxCell id="P4btZg3QqWiz5SnPCTn8-72" style="edgeStyle=orthogonalEdgeStyle;shape=connector;rounded=0;orthogonalLoop=1;jettySize=auto;html=1;exitX=1;exitY=0.5;exitDx=0;exitDy=0;entryX=0;entryY=0.5;entryDx=0;entryDy=0;strokeColor=default;align=center;verticalAlign=middle;fontFamily=Helvetica;fontSize=11;fontColor=default;labelBackgroundColor=default;endArrow=none;endFill=0;" edge="1" parent="1" source="P4btZg3QqWiz5SnPCTn8-11" target="P4btZg3QqWiz5SnPCTn8-70">
          <mxGeometry relative="1" as="geometry" />
        </mxCell>
        <mxCell id="P4btZg3QqWiz5SnPCTn8-11" value="MC Test" style="rounded=0;whiteSpace=wrap;html=1;" vertex="1" parent="1">
          <mxGeometry x="360" y="160" width="120" height="40" as="geometry" />
        </mxCell>
        <mxCell id="P4btZg3QqWiz5SnPCTn8-12" value="Questions" style="rounded=0;whiteSpace=wrap;html=1;" vertex="1" parent="1">
          <mxGeometry x="840" y="160" width="120" height="40" as="geometry" />
        </mxCell>
        <mxCell id="P4btZg3QqWiz5SnPCTn8-75" style="edgeStyle=orthogonalEdgeStyle;shape=connector;rounded=0;orthogonalLoop=1;jettySize=auto;html=1;exitX=1;exitY=0.5;exitDx=0;exitDy=0;entryX=0;entryY=0.5;entryDx=0;entryDy=0;strokeColor=default;align=center;verticalAlign=middle;fontFamily=Helvetica;fontSize=11;fontColor=default;labelBackgroundColor=default;endArrow=none;endFill=0;" edge="1" parent="1" source="P4btZg3QqWiz5SnPCTn8-13" target="P4btZg3QqWiz5SnPCTn8-74">
          <mxGeometry relative="1" as="geometry" />
        </mxCell>
        <mxCell id="P4btZg3QqWiz5SnPCTn8-78" style="edgeStyle=orthogonalEdgeStyle;shape=connector;rounded=0;orthogonalLoop=1;jettySize=auto;html=1;exitX=1;exitY=1;exitDx=0;exitDy=0;entryX=0;entryY=0.5;entryDx=0;entryDy=0;strokeColor=default;align=center;verticalAlign=middle;fontFamily=Helvetica;fontSize=11;fontColor=default;labelBackgroundColor=default;endArrow=none;endFill=0;" edge="1" parent="1" source="P4btZg3QqWiz5SnPCTn8-13" target="P4btZg3QqWiz5SnPCTn8-77">
          <mxGeometry relative="1" as="geometry">
            <Array as="points">
              <mxPoint x="340" y="560" />
              <mxPoint x="340" y="620" />
            </Array>
          </mxGeometry>
        </mxCell>
        <mxCell id="P4btZg3QqWiz5SnPCTn8-13" value="Persons" style="rounded=0;whiteSpace=wrap;html=1;" vertex="1" parent="1">
          <mxGeometry x="120" y="520" width="120" height="40" as="geometry" />
        </mxCell>
        <mxCell id="P4btZg3QqWiz5SnPCTn8-14" value="&lt;u&gt;LVANR&lt;/u&gt;" style="ellipse;whiteSpace=wrap;html=1;" vertex="1" parent="1">
          <mxGeometry x="500" y="280" width="80" height="40" as="geometry" />
        </mxCell>
        <mxCell id="P4btZg3QqWiz5SnPCTn8-35" style="edgeStyle=orthogonalEdgeStyle;rounded=0;orthogonalLoop=1;jettySize=auto;html=1;exitX=0.5;exitY=1;exitDx=0;exitDy=0;entryX=0.5;entryY=0;entryDx=0;entryDy=0;endArrow=none;endFill=0;" edge="1" parent="1" source="P4btZg3QqWiz5SnPCTn8-15" target="P4btZg3QqWiz5SnPCTn8-7">
          <mxGeometry relative="1" as="geometry" />
        </mxCell>
        <mxCell id="P4btZg3QqWiz5SnPCTn8-15" value="Name" style="ellipse;whiteSpace=wrap;html=1;" vertex="1" parent="1">
          <mxGeometry x="580" y="280" width="80" height="40" as="geometry" />
        </mxCell>
        <mxCell id="P4btZg3QqWiz5SnPCTn8-36" style="edgeStyle=orthogonalEdgeStyle;rounded=0;orthogonalLoop=1;jettySize=auto;html=1;exitX=0.5;exitY=1;exitDx=0;exitDy=0;endArrow=none;endFill=0;" edge="1" parent="1" source="P4btZg3QqWiz5SnPCTn8-16">
          <mxGeometry relative="1" as="geometry">
            <mxPoint x="660" y="360" as="targetPoint" />
          </mxGeometry>
        </mxCell>
        <mxCell id="P4btZg3QqWiz5SnPCTn8-16" value="Maximum" style="ellipse;whiteSpace=wrap;html=1;" vertex="1" parent="1">
          <mxGeometry x="660" y="280" width="80" height="40" as="geometry" />
        </mxCell>
        <mxCell id="P4btZg3QqWiz5SnPCTn8-17" value="Size" style="ellipse;whiteSpace=wrap;html=1;" vertex="1" parent="1">
          <mxGeometry x="740" y="280" width="80" height="40" as="geometry" />
        </mxCell>
        <mxCell id="P4btZg3QqWiz5SnPCTn8-39" style="edgeStyle=orthogonalEdgeStyle;shape=connector;rounded=0;orthogonalLoop=1;jettySize=auto;html=1;strokeColor=default;align=center;verticalAlign=middle;fontFamily=Helvetica;fontSize=11;fontColor=default;labelBackgroundColor=default;endArrow=none;endFill=0;entryX=0.5;entryY=0;entryDx=0;entryDy=0;exitX=0.5;exitY=1;exitDx=0;exitDy=0;" edge="1" parent="1" source="P4btZg3QqWiz5SnPCTn8-18" target="P4btZg3QqWiz5SnPCTn8-58">
          <mxGeometry relative="1" as="geometry">
            <mxPoint x="660" y="360" as="targetPoint" />
            <Array as="points">
              <mxPoint x="900" y="310" />
              <mxPoint x="900" y="310" />
            </Array>
          </mxGeometry>
        </mxCell>
        <mxCell id="P4btZg3QqWiz5SnPCTn8-18" value="Order" style="ellipse;whiteSpace=wrap;html=1;" vertex="1" parent="1">
          <mxGeometry x="860" y="280" width="80" height="40" as="geometry" />
        </mxCell>
        <mxCell id="P4btZg3QqWiz5SnPCTn8-41" style="edgeStyle=orthogonalEdgeStyle;shape=connector;rounded=0;orthogonalLoop=1;jettySize=auto;html=1;exitX=0.5;exitY=1;exitDx=0;exitDy=0;strokeColor=default;align=center;verticalAlign=middle;fontFamily=Helvetica;fontSize=11;fontColor=default;labelBackgroundColor=default;endArrow=none;endFill=0;" edge="1" parent="1" source="P4btZg3QqWiz5SnPCTn8-19">
          <mxGeometry relative="1" as="geometry">
            <mxPoint x="1140" y="360" as="targetPoint" />
          </mxGeometry>
        </mxCell>
        <mxCell id="P4btZg3QqWiz5SnPCTn8-19" value="Name" style="ellipse;whiteSpace=wrap;html=1;" vertex="1" parent="1">
          <mxGeometry x="1060" y="280" width="80" height="40" as="geometry" />
        </mxCell>
        <mxCell id="P4btZg3QqWiz5SnPCTn8-40" style="edgeStyle=orthogonalEdgeStyle;shape=connector;rounded=0;orthogonalLoop=1;jettySize=auto;html=1;exitX=0.5;exitY=1;exitDx=0;exitDy=0;entryX=0.5;entryY=0;entryDx=0;entryDy=0;strokeColor=default;align=center;verticalAlign=middle;fontFamily=Helvetica;fontSize=11;fontColor=default;labelBackgroundColor=default;endArrow=none;endFill=0;" edge="1" parent="1" source="P4btZg3QqWiz5SnPCTn8-20" target="P4btZg3QqWiz5SnPCTn8-8">
          <mxGeometry relative="1" as="geometry" />
        </mxCell>
        <mxCell id="P4btZg3QqWiz5SnPCTn8-20" value="&lt;u&gt;ID&lt;/u&gt;" style="ellipse;whiteSpace=wrap;html=1;" vertex="1" parent="1">
          <mxGeometry x="1140" y="280" width="80" height="40" as="geometry" />
        </mxCell>
        <mxCell id="P4btZg3QqWiz5SnPCTn8-42" style="edgeStyle=orthogonalEdgeStyle;shape=connector;rounded=0;orthogonalLoop=1;jettySize=auto;html=1;exitX=0.5;exitY=1;exitDx=0;exitDy=0;entryX=0.5;entryY=0;entryDx=0;entryDy=0;strokeColor=default;align=center;verticalAlign=middle;fontFamily=Helvetica;fontSize=11;fontColor=default;labelBackgroundColor=default;endArrow=none;endFill=0;" edge="1" parent="1" source="P4btZg3QqWiz5SnPCTn8-21" target="P4btZg3QqWiz5SnPCTn8-9">
          <mxGeometry relative="1" as="geometry" />
        </mxCell>
        <mxCell id="P4btZg3QqWiz5SnPCTn8-21" value="&lt;u&gt;ObjectName&lt;/u&gt;" style="ellipse;whiteSpace=wrap;html=1;" vertex="1" parent="1">
          <mxGeometry x="1540" y="380" width="80" height="40" as="geometry" />
        </mxCell>
        <mxCell id="P4btZg3QqWiz5SnPCTn8-43" style="edgeStyle=orthogonalEdgeStyle;shape=connector;rounded=0;orthogonalLoop=1;jettySize=auto;html=1;exitX=0.5;exitY=1;exitDx=0;exitDy=0;entryX=0.5;entryY=0;entryDx=0;entryDy=0;strokeColor=default;align=center;verticalAlign=middle;fontFamily=Helvetica;fontSize=11;fontColor=default;labelBackgroundColor=default;endArrow=none;endFill=0;" edge="1" parent="1" source="P4btZg3QqWiz5SnPCTn8-22" target="P4btZg3QqWiz5SnPCTn8-9">
          <mxGeometry relative="1" as="geometry" />
        </mxCell>
        <mxCell id="P4btZg3QqWiz5SnPCTn8-22" value="Type" style="ellipse;whiteSpace=wrap;html=1;" vertex="1" parent="1">
          <mxGeometry x="1620" y="380" width="80" height="40" as="geometry" />
        </mxCell>
        <mxCell id="P4btZg3QqWiz5SnPCTn8-45" style="edgeStyle=orthogonalEdgeStyle;shape=connector;rounded=0;orthogonalLoop=1;jettySize=auto;html=1;exitX=0.5;exitY=1;exitDx=0;exitDy=0;strokeColor=default;align=center;verticalAlign=middle;fontFamily=Helvetica;fontSize=11;fontColor=default;labelBackgroundColor=default;endArrow=none;endFill=0;" edge="1" parent="1" source="P4btZg3QqWiz5SnPCTn8-23">
          <mxGeometry relative="1" as="geometry">
            <mxPoint x="179.99999999999977" y="360" as="targetPoint" />
          </mxGeometry>
        </mxCell>
        <mxCell id="P4btZg3QqWiz5SnPCTn8-23" value="&lt;u&gt;Definition&lt;/u&gt;" style="ellipse;whiteSpace=wrap;html=1;" vertex="1" parent="1">
          <mxGeometry x="180" y="280" width="80" height="40" as="geometry" />
        </mxCell>
        <mxCell id="P4btZg3QqWiz5SnPCTn8-44" style="edgeStyle=orthogonalEdgeStyle;shape=connector;rounded=0;orthogonalLoop=1;jettySize=auto;html=1;exitX=0.5;exitY=1;exitDx=0;exitDy=0;entryX=0.5;entryY=0;entryDx=0;entryDy=0;strokeColor=default;align=center;verticalAlign=middle;fontFamily=Helvetica;fontSize=11;fontColor=default;labelBackgroundColor=default;endArrow=none;endFill=0;" edge="1" parent="1" source="P4btZg3QqWiz5SnPCTn8-24" target="P4btZg3QqWiz5SnPCTn8-10">
          <mxGeometry relative="1" as="geometry" />
        </mxCell>
        <mxCell id="P4btZg3QqWiz5SnPCTn8-24" value="Mode" style="ellipse;whiteSpace=wrap;html=1;" vertex="1" parent="1">
          <mxGeometry x="100" y="280" width="80" height="40" as="geometry" />
        </mxCell>
        <mxCell id="P4btZg3QqWiz5SnPCTn8-46" style="edgeStyle=orthogonalEdgeStyle;shape=connector;rounded=0;orthogonalLoop=1;jettySize=auto;html=1;exitX=0.5;exitY=1;exitDx=0;exitDy=0;entryX=0.5;entryY=0;entryDx=0;entryDy=0;strokeColor=default;align=center;verticalAlign=middle;fontFamily=Helvetica;fontSize=11;fontColor=default;labelBackgroundColor=default;endArrow=none;endFill=0;" edge="1" parent="1" source="P4btZg3QqWiz5SnPCTn8-25" target="P4btZg3QqWiz5SnPCTn8-11">
          <mxGeometry relative="1" as="geometry" />
        </mxCell>
        <mxCell id="P4btZg3QqWiz5SnPCTn8-25" value="&lt;u&gt;Time&lt;/u&gt;" style="ellipse;whiteSpace=wrap;html=1;" vertex="1" parent="1">
          <mxGeometry x="380" y="80" width="80" height="40" as="geometry" />
        </mxCell>
        <mxCell id="P4btZg3QqWiz5SnPCTn8-48" style="edgeStyle=orthogonalEdgeStyle;shape=connector;rounded=0;orthogonalLoop=1;jettySize=auto;html=1;exitX=0.5;exitY=1;exitDx=0;exitDy=0;strokeColor=default;align=center;verticalAlign=middle;fontFamily=Helvetica;fontSize=11;fontColor=default;labelBackgroundColor=default;endArrow=none;endFill=0;" edge="1" parent="1" source="P4btZg3QqWiz5SnPCTn8-26">
          <mxGeometry relative="1" as="geometry">
            <mxPoint x="900" y="160" as="targetPoint" />
          </mxGeometry>
        </mxCell>
        <mxCell id="P4btZg3QqWiz5SnPCTn8-26" value="Question" style="ellipse;whiteSpace=wrap;html=1;" vertex="1" parent="1">
          <mxGeometry x="820" y="80" width="80" height="40" as="geometry" />
        </mxCell>
        <mxCell id="P4btZg3QqWiz5SnPCTn8-235" style="edgeStyle=orthogonalEdgeStyle;shape=connector;rounded=0;orthogonalLoop=1;jettySize=auto;html=1;exitX=0.5;exitY=1;exitDx=0;exitDy=0;strokeColor=default;align=center;verticalAlign=middle;fontFamily=Helvetica;fontSize=11;fontColor=default;labelBackgroundColor=default;endArrow=none;endFill=0;" edge="1" parent="1" source="P4btZg3QqWiz5SnPCTn8-27">
          <mxGeometry relative="1" as="geometry">
            <mxPoint x="1380" y="160" as="targetPoint" />
          </mxGeometry>
        </mxCell>
        <mxCell id="P4btZg3QqWiz5SnPCTn8-27" value="AWTrue" style="ellipse;whiteSpace=wrap;html=1;" vertex="1" parent="1">
          <mxGeometry x="1340" y="90" width="80" height="40" as="geometry" />
        </mxCell>
        <mxCell id="P4btZg3QqWiz5SnPCTn8-236" style="edgeStyle=orthogonalEdgeStyle;shape=connector;rounded=0;orthogonalLoop=1;jettySize=auto;html=1;exitX=0.5;exitY=1;exitDx=0;exitDy=0;strokeColor=default;align=center;verticalAlign=middle;fontFamily=Helvetica;fontSize=11;fontColor=default;labelBackgroundColor=default;endArrow=none;endFill=0;" edge="1" parent="1" source="P4btZg3QqWiz5SnPCTn8-28">
          <mxGeometry relative="1" as="geometry">
            <mxPoint x="1380" y="160" as="targetPoint" />
            <Array as="points">
              <mxPoint x="1460" y="140" />
              <mxPoint x="1381" y="140" />
              <mxPoint x="1381" y="160" />
            </Array>
          </mxGeometry>
        </mxCell>
        <mxCell id="P4btZg3QqWiz5SnPCTn8-28" value="AWFalse1" style="ellipse;whiteSpace=wrap;html=1;" vertex="1" parent="1">
          <mxGeometry x="1420" y="90" width="80" height="40" as="geometry" />
        </mxCell>
        <mxCell id="P4btZg3QqWiz5SnPCTn8-47" style="edgeStyle=orthogonalEdgeStyle;shape=connector;rounded=0;orthogonalLoop=1;jettySize=auto;html=1;exitX=0.5;exitY=1;exitDx=0;exitDy=0;entryX=0.5;entryY=0;entryDx=0;entryDy=0;strokeColor=default;align=center;verticalAlign=middle;fontFamily=Helvetica;fontSize=11;fontColor=default;labelBackgroundColor=default;endArrow=none;endFill=0;" edge="1" parent="1" source="P4btZg3QqWiz5SnPCTn8-29" target="P4btZg3QqWiz5SnPCTn8-12">
          <mxGeometry relative="1" as="geometry" />
        </mxCell>
        <mxCell id="P4btZg3QqWiz5SnPCTn8-29" value="&lt;u&gt;QID&lt;/u&gt;" style="ellipse;whiteSpace=wrap;html=1;" vertex="1" parent="1">
          <mxGeometry x="740" y="80" width="80" height="40" as="geometry" />
        </mxCell>
        <mxCell id="P4btZg3QqWiz5SnPCTn8-237" style="edgeStyle=orthogonalEdgeStyle;shape=connector;rounded=0;orthogonalLoop=1;jettySize=auto;html=1;exitX=0.5;exitY=1;exitDx=0;exitDy=0;entryX=0.5;entryY=0;entryDx=0;entryDy=0;strokeColor=default;align=center;verticalAlign=middle;fontFamily=Helvetica;fontSize=11;fontColor=default;labelBackgroundColor=default;endArrow=none;endFill=0;" edge="1" parent="1" source="P4btZg3QqWiz5SnPCTn8-30" target="P4btZg3QqWiz5SnPCTn8-232">
          <mxGeometry relative="1" as="geometry">
            <Array as="points">
              <mxPoint x="1340" y="140" />
              <mxPoint x="1380" y="140" />
            </Array>
          </mxGeometry>
        </mxCell>
        <mxCell id="P4btZg3QqWiz5SnPCTn8-30" value="AWFalse2" style="ellipse;whiteSpace=wrap;html=1;" vertex="1" parent="1">
          <mxGeometry x="1300" y="50" width="80" height="40" as="geometry" />
        </mxCell>
        <mxCell id="P4btZg3QqWiz5SnPCTn8-53" style="edgeStyle=orthogonalEdgeStyle;shape=connector;rounded=0;orthogonalLoop=1;jettySize=auto;html=1;exitX=0.5;exitY=1;exitDx=0;exitDy=0;strokeColor=default;align=center;verticalAlign=middle;fontFamily=Helvetica;fontSize=11;fontColor=default;labelBackgroundColor=default;endArrow=none;endFill=0;" edge="1" parent="1" source="P4btZg3QqWiz5SnPCTn8-31">
          <mxGeometry relative="1" as="geometry">
            <mxPoint x="180" y="520" as="targetPoint" />
          </mxGeometry>
        </mxCell>
        <mxCell id="P4btZg3QqWiz5SnPCTn8-31" value="Name" style="ellipse;whiteSpace=wrap;html=1;" vertex="1" parent="1">
          <mxGeometry x="180" y="440" width="80" height="40" as="geometry" />
        </mxCell>
        <mxCell id="P4btZg3QqWiz5SnPCTn8-52" style="edgeStyle=orthogonalEdgeStyle;shape=connector;rounded=0;orthogonalLoop=1;jettySize=auto;html=1;exitX=0.5;exitY=1;exitDx=0;exitDy=0;entryX=0.5;entryY=0;entryDx=0;entryDy=0;strokeColor=default;align=center;verticalAlign=middle;fontFamily=Helvetica;fontSize=11;fontColor=default;labelBackgroundColor=default;endArrow=none;endFill=0;" edge="1" parent="1" source="P4btZg3QqWiz5SnPCTn8-32" target="P4btZg3QqWiz5SnPCTn8-13">
          <mxGeometry relative="1" as="geometry" />
        </mxCell>
        <mxCell id="P4btZg3QqWiz5SnPCTn8-32" value="&lt;u&gt;PNR&lt;/u&gt;" style="ellipse;whiteSpace=wrap;html=1;" vertex="1" parent="1">
          <mxGeometry x="100" y="440" width="80" height="40" as="geometry" />
        </mxCell>
        <mxCell id="P4btZg3QqWiz5SnPCTn8-33" value="" style="endArrow=none;html=1;rounded=0;entryX=0.5;entryY=1;entryDx=0;entryDy=0;exitX=0.5;exitY=0;exitDx=0;exitDy=0;" edge="1" parent="1" source="P4btZg3QqWiz5SnPCTn8-7" target="P4btZg3QqWiz5SnPCTn8-17">
          <mxGeometry width="50" height="50" relative="1" as="geometry">
            <mxPoint x="680" y="360" as="sourcePoint" />
            <mxPoint x="730" y="310" as="targetPoint" />
            <Array as="points">
              <mxPoint x="660" y="340" />
              <mxPoint x="780" y="340" />
            </Array>
          </mxGeometry>
        </mxCell>
        <mxCell id="P4btZg3QqWiz5SnPCTn8-34" value="" style="endArrow=none;html=1;rounded=0;entryX=0.5;entryY=0;entryDx=0;entryDy=0;exitX=0.5;exitY=1;exitDx=0;exitDy=0;edgeStyle=orthogonalEdgeStyle;" edge="1" parent="1" source="P4btZg3QqWiz5SnPCTn8-14" target="P4btZg3QqWiz5SnPCTn8-7">
          <mxGeometry width="50" height="50" relative="1" as="geometry">
            <mxPoint x="500" y="380" as="sourcePoint" />
            <mxPoint x="620" y="340" as="targetPoint" />
          </mxGeometry>
        </mxCell>
        <mxCell id="P4btZg3QqWiz5SnPCTn8-55" style="edgeStyle=orthogonalEdgeStyle;shape=connector;rounded=0;orthogonalLoop=1;jettySize=auto;html=1;exitX=0;exitY=0.5;exitDx=0;exitDy=0;entryX=0;entryY=1;entryDx=0;entryDy=0;strokeColor=default;align=center;verticalAlign=middle;fontFamily=Helvetica;fontSize=11;fontColor=default;labelBackgroundColor=default;endArrow=none;endFill=0;" edge="1" parent="1" source="P4btZg3QqWiz5SnPCTn8-54" target="P4btZg3QqWiz5SnPCTn8-7">
          <mxGeometry relative="1" as="geometry">
            <Array as="points">
              <mxPoint x="600" y="440" />
              <mxPoint x="600" y="440" />
            </Array>
          </mxGeometry>
        </mxCell>
        <mxCell id="P4btZg3QqWiz5SnPCTn8-56" style="edgeStyle=orthogonalEdgeStyle;shape=connector;rounded=0;orthogonalLoop=1;jettySize=auto;html=1;exitX=1;exitY=0.5;exitDx=0;exitDy=0;entryX=1;entryY=1;entryDx=0;entryDy=0;strokeColor=default;align=center;verticalAlign=middle;fontFamily=Helvetica;fontSize=11;fontColor=default;labelBackgroundColor=default;endArrow=none;endFill=0;" edge="1" parent="1" source="P4btZg3QqWiz5SnPCTn8-54" target="P4btZg3QqWiz5SnPCTn8-7">
          <mxGeometry relative="1" as="geometry">
            <Array as="points">
              <mxPoint x="720" y="440" />
              <mxPoint x="720" y="440" />
            </Array>
          </mxGeometry>
        </mxCell>
        <mxCell id="P4btZg3QqWiz5SnPCTn8-54" value="&lt;span style=&quot;font-size: 10.5pt; line-height: 107%; font-family: Arial, sans-serif; color: rgb(32, 33, 34); background-image: initial; background-position: initial; background-size: initial; background-repeat: initial; background-attachment: initial; background-origin: initial; background-clip: initial;&quot; lang=&quot;EN-US&quot;&gt;prerequisite&lt;/span&gt;" style="rhombus;whiteSpace=wrap;html=1;fontFamily=Helvetica;fontSize=11;fontColor=default;labelBackgroundColor=default;" vertex="1" parent="1">
          <mxGeometry x="600" y="430" width="120" height="60" as="geometry" />
        </mxCell>
        <mxCell id="P4btZg3QqWiz5SnPCTn8-60" style="edgeStyle=orthogonalEdgeStyle;shape=connector;rounded=0;orthogonalLoop=1;jettySize=auto;html=1;exitX=1;exitY=0.5;exitDx=0;exitDy=0;entryX=0;entryY=0.5;entryDx=0;entryDy=0;strokeColor=default;align=center;verticalAlign=middle;fontFamily=Helvetica;fontSize=11;fontColor=default;labelBackgroundColor=default;endArrow=none;endFill=0;" edge="1" parent="1" source="P4btZg3QqWiz5SnPCTn8-58" target="P4btZg3QqWiz5SnPCTn8-8">
          <mxGeometry relative="1" as="geometry" />
        </mxCell>
        <mxCell id="P4btZg3QqWiz5SnPCTn8-58" value="&lt;font face=&quot;Arial, sans-serif&quot; color=&quot;#202122&quot;&gt;&lt;span style=&quot;font-size: 14px;&quot;&gt;contains&lt;/span&gt;&lt;/font&gt;" style="rhombus;whiteSpace=wrap;html=1;fontFamily=Helvetica;fontSize=11;fontColor=default;labelBackgroundColor=default;" vertex="1" parent="1">
          <mxGeometry x="840" y="360" width="120" height="40" as="geometry" />
        </mxCell>
        <mxCell id="P4btZg3QqWiz5SnPCTn8-61" value="1,*" style="text;html=1;align=center;verticalAlign=middle;resizable=0;points=[];autosize=1;strokeColor=none;fillColor=none;fontFamily=Helvetica;fontSize=11;fontColor=default;labelBackgroundColor=default;" vertex="1" parent="1">
          <mxGeometry x="800" y="350" width="40" height="30" as="geometry" />
        </mxCell>
        <mxCell id="P4btZg3QqWiz5SnPCTn8-62" value="0,*" style="text;html=1;align=center;verticalAlign=middle;resizable=0;points=[];autosize=1;strokeColor=none;fillColor=none;fontFamily=Helvetica;fontSize=11;fontColor=default;labelBackgroundColor=default;" vertex="1" parent="1">
          <mxGeometry x="960" y="350" width="40" height="30" as="geometry" />
        </mxCell>
        <mxCell id="P4btZg3QqWiz5SnPCTn8-69" style="edgeStyle=orthogonalEdgeStyle;shape=connector;rounded=0;orthogonalLoop=1;jettySize=auto;html=1;exitX=1;exitY=0.5;exitDx=0;exitDy=0;entryX=0;entryY=0.5;entryDx=0;entryDy=0;strokeColor=default;align=center;verticalAlign=middle;fontFamily=Helvetica;fontSize=11;fontColor=default;labelBackgroundColor=default;endArrow=none;endFill=0;" edge="1" parent="1" source="P4btZg3QqWiz5SnPCTn8-67" target="P4btZg3QqWiz5SnPCTn8-7">
          <mxGeometry relative="1" as="geometry" />
        </mxCell>
        <mxCell id="P4btZg3QqWiz5SnPCTn8-67" value="&lt;span style=&quot;font-size: 10.5pt; line-height: 107%; font-family: Arial, sans-serif; color: rgb(32, 33, 34); background-image: initial; background-position: initial; background-size: initial; background-repeat: initial; background-attachment: initial; background-origin: initial; background-clip: initial;&quot; lang=&quot;EN-US&quot;&gt;contains&lt;/span&gt;" style="rhombus;whiteSpace=wrap;html=1;fontFamily=Helvetica;fontSize=11;fontColor=default;labelBackgroundColor=default;" vertex="1" parent="1">
          <mxGeometry x="360" y="360" width="120" height="40" as="geometry" />
        </mxCell>
        <mxCell id="P4btZg3QqWiz5SnPCTn8-73" style="edgeStyle=orthogonalEdgeStyle;shape=connector;rounded=0;orthogonalLoop=1;jettySize=auto;html=1;exitX=1;exitY=0.5;exitDx=0;exitDy=0;entryX=0;entryY=0.5;entryDx=0;entryDy=0;strokeColor=default;align=center;verticalAlign=middle;fontFamily=Helvetica;fontSize=11;fontColor=default;labelBackgroundColor=default;endArrow=none;endFill=0;" edge="1" parent="1" source="P4btZg3QqWiz5SnPCTn8-70" target="P4btZg3QqWiz5SnPCTn8-12">
          <mxGeometry relative="1" as="geometry" />
        </mxCell>
        <mxCell id="P4btZg3QqWiz5SnPCTn8-70" value="&lt;span style=&quot;font-size: 10.5pt; line-height: 107%; font-family: Arial, sans-serif; color: rgb(32, 33, 34); background-image: initial; background-position: initial; background-size: initial; background-repeat: initial; background-attachment: initial; background-origin: initial; background-clip: initial;&quot; lang=&quot;EN-US&quot;&gt;consists of&lt;/span&gt;" style="rhombus;whiteSpace=wrap;html=1;fontFamily=Helvetica;fontSize=11;fontColor=default;labelBackgroundColor=default;" vertex="1" parent="1">
          <mxGeometry x="600" y="160" width="120" height="40" as="geometry" />
        </mxCell>
        <mxCell id="P4btZg3QqWiz5SnPCTn8-76" style="edgeStyle=orthogonalEdgeStyle;shape=connector;rounded=0;orthogonalLoop=1;jettySize=auto;html=1;exitX=1;exitY=0.5;exitDx=0;exitDy=0;entryX=0;entryY=0.75;entryDx=0;entryDy=0;strokeColor=default;align=center;verticalAlign=middle;fontFamily=Helvetica;fontSize=11;fontColor=default;labelBackgroundColor=default;endArrow=none;endFill=0;" edge="1" parent="1" source="P4btZg3QqWiz5SnPCTn8-74" target="P4btZg3QqWiz5SnPCTn8-7">
          <mxGeometry relative="1" as="geometry">
            <Array as="points">
              <mxPoint x="500" y="540" />
              <mxPoint x="500" y="390" />
            </Array>
          </mxGeometry>
        </mxCell>
        <mxCell id="P4btZg3QqWiz5SnPCTn8-74" value="&lt;span style=&quot;font-size: 10.5pt; line-height: 107%; font-family: Arial, sans-serif; color: rgb(32, 33, 34); background-image: initial; background-position: initial; background-size: initial; background-repeat: initial; background-attachment: initial; background-origin: initial; background-clip: initial;&quot; lang=&quot;EN-US&quot;&gt;participate&lt;/span&gt;" style="rhombus;whiteSpace=wrap;html=1;fontFamily=Helvetica;fontSize=11;fontColor=default;labelBackgroundColor=default;" vertex="1" parent="1">
          <mxGeometry x="360" y="520" width="120" height="40" as="geometry" />
        </mxCell>
        <mxCell id="P4btZg3QqWiz5SnPCTn8-81" style="edgeStyle=orthogonalEdgeStyle;shape=connector;rounded=0;orthogonalLoop=1;jettySize=auto;html=1;exitX=1;exitY=0.5;exitDx=0;exitDy=0;strokeColor=default;align=center;verticalAlign=middle;fontFamily=Helvetica;fontSize=11;fontColor=default;labelBackgroundColor=default;endArrow=none;endFill=0;" edge="1" parent="1" source="P4btZg3QqWiz5SnPCTn8-77">
          <mxGeometry relative="1" as="geometry">
            <mxPoint x="599.9999999999998" y="400" as="targetPoint" />
            <Array as="points">
              <mxPoint x="520" y="620" />
              <mxPoint x="520" y="400" />
            </Array>
          </mxGeometry>
        </mxCell>
        <mxCell id="P4btZg3QqWiz5SnPCTn8-77" value="&lt;span style=&quot;font-size: 10.5pt; line-height: 107%; font-family: Arial, sans-serif; color: rgb(32, 33, 34); background-image: initial; background-position: initial; background-size: initial; background-repeat: initial; background-attachment: initial; background-origin: initial; background-clip: initial;&quot; lang=&quot;EN-US&quot;&gt;moderate&lt;/span&gt;" style="rhombus;whiteSpace=wrap;html=1;fontFamily=Helvetica;fontSize=11;fontColor=default;labelBackgroundColor=default;" vertex="1" parent="1">
          <mxGeometry x="360" y="600" width="120" height="40" as="geometry" />
        </mxCell>
        <mxCell id="P4btZg3QqWiz5SnPCTn8-84" style="edgeStyle=orthogonalEdgeStyle;shape=connector;rounded=0;orthogonalLoop=1;jettySize=auto;html=1;exitX=0.5;exitY=1;exitDx=0;exitDy=0;entryX=0;entryY=0.25;entryDx=0;entryDy=0;strokeColor=default;align=center;verticalAlign=middle;fontFamily=Helvetica;fontSize=11;fontColor=default;labelBackgroundColor=default;endArrow=none;endFill=0;" edge="1" parent="1" source="P4btZg3QqWiz5SnPCTn8-83" target="P4btZg3QqWiz5SnPCTn8-7">
          <mxGeometry relative="1" as="geometry">
            <Array as="points">
              <mxPoint x="420" y="350" />
              <mxPoint x="600" y="350" />
            </Array>
          </mxGeometry>
        </mxCell>
        <mxCell id="P4btZg3QqWiz5SnPCTn8-85" style="edgeStyle=orthogonalEdgeStyle;shape=connector;rounded=0;orthogonalLoop=1;jettySize=auto;html=1;exitX=0.5;exitY=0;exitDx=0;exitDy=0;entryX=0.5;entryY=1;entryDx=0;entryDy=0;strokeColor=default;align=center;verticalAlign=middle;fontFamily=Helvetica;fontSize=11;fontColor=default;labelBackgroundColor=default;endArrow=none;endFill=0;" edge="1" parent="1" source="P4btZg3QqWiz5SnPCTn8-83" target="P4btZg3QqWiz5SnPCTn8-11">
          <mxGeometry relative="1" as="geometry" />
        </mxCell>
        <mxCell id="P4btZg3QqWiz5SnPCTn8-83" value="&lt;span style=&quot;font-size: 10.5pt; line-height: 107%; font-family: Arial, sans-serif; color: rgb(32, 33, 34); background-image: initial; background-position: initial; background-size: initial; background-repeat: initial; background-attachment: initial; background-origin: initial; background-clip: initial;&quot; lang=&quot;EN-US&quot;&gt;assigned&lt;/span&gt;" style="rhombus;whiteSpace=wrap;html=1;fontFamily=Helvetica;fontSize=11;fontColor=default;labelBackgroundColor=default;" vertex="1" parent="1">
          <mxGeometry x="360" y="240" width="120" height="40" as="geometry" />
        </mxCell>
        <mxCell id="P4btZg3QqWiz5SnPCTn8-88" value="0,*" style="text;html=1;align=center;verticalAlign=middle;resizable=0;points=[];autosize=1;strokeColor=none;fillColor=none;fontFamily=Helvetica;fontSize=11;fontColor=default;labelBackgroundColor=default;" vertex="1" parent="1">
          <mxGeometry x="320" y="510" width="40" height="30" as="geometry" />
        </mxCell>
        <mxCell id="P4btZg3QqWiz5SnPCTn8-89" value="0,4" style="text;html=1;align=center;verticalAlign=middle;resizable=0;points=[];autosize=1;strokeColor=none;fillColor=none;fontFamily=Helvetica;fontSize=11;fontColor=default;labelBackgroundColor=default;" vertex="1" parent="1">
          <mxGeometry x="340" y="590" width="40" height="30" as="geometry" />
        </mxCell>
        <mxCell id="P4btZg3QqWiz5SnPCTn8-90" value="1,2" style="text;html=1;align=center;verticalAlign=middle;resizable=0;points=[];autosize=1;strokeColor=none;fillColor=none;fontFamily=Helvetica;fontSize=11;fontColor=default;labelBackgroundColor=default;" vertex="1" parent="1">
          <mxGeometry x="480" y="590" width="40" height="30" as="geometry" />
        </mxCell>
        <mxCell id="P4btZg3QqWiz5SnPCTn8-91" value="1,*" style="text;html=1;align=center;verticalAlign=middle;resizable=0;points=[];autosize=1;strokeColor=none;fillColor=none;fontFamily=Helvetica;fontSize=11;fontColor=default;labelBackgroundColor=default;" vertex="1" parent="1">
          <mxGeometry x="460" y="510" width="40" height="30" as="geometry" />
        </mxCell>
        <mxCell id="P4btZg3QqWiz5SnPCTn8-92" value="0,1" style="text;html=1;align=center;verticalAlign=middle;resizable=0;points=[];autosize=1;strokeColor=none;fillColor=none;fontFamily=Helvetica;fontSize=11;fontColor=default;labelBackgroundColor=default;" vertex="1" parent="1">
          <mxGeometry x="480" y="350" width="40" height="30" as="geometry" />
        </mxCell>
        <mxCell id="P4btZg3QqWiz5SnPCTn8-93" value="0,*" style="text;html=1;align=center;verticalAlign=middle;resizable=0;points=[];autosize=1;strokeColor=none;fillColor=none;fontFamily=Helvetica;fontSize=11;fontColor=default;labelBackgroundColor=default;" vertex="1" parent="1">
          <mxGeometry x="320" y="350" width="40" height="30" as="geometry" />
        </mxCell>
        <mxCell id="P4btZg3QqWiz5SnPCTn8-94" value="0,*" style="text;html=1;align=center;verticalAlign=middle;resizable=0;points=[];autosize=1;strokeColor=none;fillColor=none;fontFamily=Helvetica;fontSize=11;fontColor=default;labelBackgroundColor=default;" vertex="1" parent="1">
          <mxGeometry x="380" y="280" width="40" height="30" as="geometry" />
        </mxCell>
        <mxCell id="P4btZg3QqWiz5SnPCTn8-95" value="0,*" style="text;html=1;align=center;verticalAlign=middle;resizable=0;points=[];autosize=1;strokeColor=none;fillColor=none;fontFamily=Helvetica;fontSize=11;fontColor=default;labelBackgroundColor=default;" vertex="1" parent="1">
          <mxGeometry x="380" y="210" width="40" height="30" as="geometry" />
        </mxCell>
        <mxCell id="P4btZg3QqWiz5SnPCTn8-96" value="1,*" style="text;html=1;align=center;verticalAlign=middle;resizable=0;points=[];autosize=1;strokeColor=none;fillColor=none;fontFamily=Helvetica;fontSize=11;fontColor=default;labelBackgroundColor=default;" vertex="1" parent="1">
          <mxGeometry x="560" y="150" width="40" height="30" as="geometry" />
        </mxCell>
        <mxCell id="P4btZg3QqWiz5SnPCTn8-97" value="0,*" style="text;html=1;align=center;verticalAlign=middle;resizable=0;points=[];autosize=1;strokeColor=none;fillColor=none;fontFamily=Helvetica;fontSize=11;fontColor=default;labelBackgroundColor=default;" vertex="1" parent="1">
          <mxGeometry x="720" y="150" width="40" height="30" as="geometry" />
        </mxCell>
        <mxCell id="P4btZg3QqWiz5SnPCTn8-173" style="edgeStyle=orthogonalEdgeStyle;shape=connector;rounded=0;orthogonalLoop=1;jettySize=auto;html=1;exitX=0.5;exitY=0;exitDx=0;exitDy=0;strokeColor=default;align=center;verticalAlign=middle;fontFamily=Helvetica;fontSize=11;fontColor=default;labelBackgroundColor=default;endArrow=none;endFill=0;" edge="1" parent="1" source="P4btZg3QqWiz5SnPCTn8-172" target="P4btZg3QqWiz5SnPCTn8-54">
          <mxGeometry relative="1" as="geometry" />
        </mxCell>
        <mxCell id="P4btZg3QqWiz5SnPCTn8-172" value="Noted" style="ellipse;whiteSpace=wrap;html=1;" vertex="1" parent="1">
          <mxGeometry x="620" y="520" width="80" height="40" as="geometry" />
        </mxCell>
        <mxCell id="P4btZg3QqWiz5SnPCTn8-220" value="Questions: {[&lt;u&gt;QID:integer,&lt;/u&gt;&amp;nbsp;Question: string]}" style="text;html=1;align=left;verticalAlign=middle;resizable=0;points=[];autosize=1;strokeColor=none;fillColor=none;fontFamily=Helvetica;fontSize=11;fontColor=default;labelBackgroundColor=default;" vertex="1" parent="1">
          <mxGeometry x="2010" y="20" width="230" height="30" as="geometry" />
        </mxCell>
        <mxCell id="P4btZg3QqWiz5SnPCTn8-223" value="E-Course: {[&lt;u&gt;LVANR:integer,&lt;/u&gt;&amp;nbsp;Name: String, Maximum: integer, Size: time]}" style="text;html=1;align=left;verticalAlign=middle;resizable=0;points=[];autosize=1;strokeColor=none;fillColor=none;fontFamily=Helvetica;fontSize=11;fontColor=default;labelBackgroundColor=default;" vertex="1" parent="1">
          <mxGeometry x="2010" y="80" width="380" height="30" as="geometry" />
        </mxCell>
        <mxCell id="P4btZg3QqWiz5SnPCTn8-224" value="Test Modules: {[&lt;u&gt;Definition: String,&lt;/u&gt;&amp;nbsp;Mode: String]}" style="text;html=1;align=left;verticalAlign=middle;resizable=0;points=[];autosize=1;strokeColor=none;fillColor=none;fontFamily=Helvetica;fontSize=11;fontColor=default;labelBackgroundColor=default;" vertex="1" parent="1">
          <mxGeometry x="2010" y="110" width="260" height="30" as="geometry" />
        </mxCell>
        <mxCell id="P4btZg3QqWiz5SnPCTn8-225" value="Persons{[&lt;u&gt;PNR: integer,&lt;/u&gt;&amp;nbsp;Name: String]}" style="text;html=1;align=left;verticalAlign=middle;resizable=0;points=[];autosize=1;strokeColor=none;fillColor=none;fontFamily=Helvetica;fontSize=11;fontColor=default;labelBackgroundColor=default;" vertex="1" parent="1">
          <mxGeometry x="2010" y="140" width="210" height="30" as="geometry" />
        </mxCell>
        <mxCell id="P4btZg3QqWiz5SnPCTn8-226" value="MC Test: {[&lt;u&gt;Time: time&lt;/u&gt;]}" style="text;html=1;align=left;verticalAlign=middle;resizable=0;points=[];autosize=1;strokeColor=none;fillColor=none;fontFamily=Helvetica;fontSize=11;fontColor=default;labelBackgroundColor=default;" vertex="1" parent="1">
          <mxGeometry x="2010" y="170" width="130" height="30" as="geometry" />
        </mxCell>
        <mxCell id="P4btZg3QqWiz5SnPCTn8-227" value="Learning Modules: {[&lt;u&gt;ID: integer,&lt;/u&gt;&amp;nbsp;Name: String]}" style="text;html=1;align=left;verticalAlign=middle;resizable=0;points=[];autosize=1;strokeColor=none;fillColor=none;fontFamily=Helvetica;fontSize=11;fontColor=default;labelBackgroundColor=default;dashed=1;" vertex="1" parent="1">
          <mxGeometry x="2010" y="200" width="250" height="30" as="geometry" />
        </mxCell>
        <mxCell id="P4btZg3QqWiz5SnPCTn8-228" value="Learning Objects: {[&lt;u&gt;ObjectName: Strin&lt;/u&gt;g, Type: String]}" style="text;html=1;align=left;verticalAlign=middle;resizable=0;points=[];autosize=1;strokeColor=none;fillColor=none;fontFamily=Helvetica;fontSize=11;fontColor=default;labelBackgroundColor=default;" vertex="1" parent="1">
          <mxGeometry x="2010" y="230" width="290" height="30" as="geometry" />
        </mxCell>
        <mxCell id="P4btZg3QqWiz5SnPCTn8-231" value="Awnsers{[&lt;u&gt;Question: String&lt;/u&gt;, AWTrue: String, AWFalse1: String, AWFalse2: String]}" style="text;html=1;align=left;verticalAlign=middle;resizable=0;points=[];autosize=1;strokeColor=none;fillColor=none;fontFamily=Helvetica;fontSize=11;fontColor=default;labelBackgroundColor=default;" vertex="1" parent="1">
          <mxGeometry x="2010" y="50" width="420" height="30" as="geometry" />
        </mxCell>
        <mxCell id="P4btZg3QqWiz5SnPCTn8-232" value="Answers" style="rounded=0;whiteSpace=wrap;html=1;" vertex="1" parent="1">
          <mxGeometry x="1320" y="160" width="120" height="40" as="geometry" />
        </mxCell>
        <mxCell id="P4btZg3QqWiz5SnPCTn8-234" style="edgeStyle=orthogonalEdgeStyle;shape=connector;rounded=0;orthogonalLoop=1;jettySize=auto;html=1;exitX=0.5;exitY=1;exitDx=0;exitDy=0;entryX=0.5;entryY=0;entryDx=0;entryDy=0;strokeColor=default;align=center;verticalAlign=middle;fontFamily=Helvetica;fontSize=11;fontColor=default;labelBackgroundColor=default;endArrow=none;endFill=0;" edge="1" parent="1" source="P4btZg3QqWiz5SnPCTn8-233" target="P4btZg3QqWiz5SnPCTn8-232">
          <mxGeometry relative="1" as="geometry">
            <Array as="points">
              <mxPoint x="1300" y="140" />
              <mxPoint x="1380" y="140" />
            </Array>
          </mxGeometry>
        </mxCell>
        <mxCell id="P4btZg3QqWiz5SnPCTn8-233" value="&lt;u&gt;Question&lt;/u&gt;" style="ellipse;whiteSpace=wrap;html=1;" vertex="1" parent="1">
          <mxGeometry x="1260" y="90" width="80" height="40" as="geometry" />
        </mxCell>
        <mxCell id="P4btZg3QqWiz5SnPCTn8-239" style="edgeStyle=orthogonalEdgeStyle;shape=connector;rounded=0;orthogonalLoop=1;jettySize=auto;html=1;exitX=0;exitY=0.5;exitDx=0;exitDy=0;entryX=1;entryY=0.5;entryDx=0;entryDy=0;strokeColor=default;align=center;verticalAlign=middle;fontFamily=Helvetica;fontSize=11;fontColor=default;labelBackgroundColor=default;endArrow=none;endFill=0;" edge="1" parent="1" source="P4btZg3QqWiz5SnPCTn8-238" target="P4btZg3QqWiz5SnPCTn8-12">
          <mxGeometry relative="1" as="geometry" />
        </mxCell>
        <mxCell id="P4btZg3QqWiz5SnPCTn8-240" style="edgeStyle=orthogonalEdgeStyle;shape=connector;rounded=0;orthogonalLoop=1;jettySize=auto;html=1;exitX=1;exitY=0.5;exitDx=0;exitDy=0;entryX=0;entryY=0.5;entryDx=0;entryDy=0;strokeColor=default;align=center;verticalAlign=middle;fontFamily=Helvetica;fontSize=11;fontColor=default;labelBackgroundColor=default;endArrow=none;endFill=0;" edge="1" parent="1" source="P4btZg3QqWiz5SnPCTn8-238" target="P4btZg3QqWiz5SnPCTn8-232">
          <mxGeometry relative="1" as="geometry" />
        </mxCell>
        <mxCell id="P4btZg3QqWiz5SnPCTn8-238" value="&lt;span style=&quot;font-size: 10.5pt; line-height: 107%; font-family: Arial, sans-serif; color: rgb(32, 33, 34); background-image: initial; background-position: initial; background-size: initial; background-repeat: initial; background-attachment: initial; background-origin: initial; background-clip: initial;&quot; lang=&quot;EN-US&quot;&gt;includes&lt;/span&gt;" style="rhombus;whiteSpace=wrap;html=1;fontFamily=Helvetica;fontSize=11;fontColor=default;labelBackgroundColor=default;" vertex="1" parent="1">
          <mxGeometry x="1080" y="160" width="120" height="40" as="geometry" />
        </mxCell>
        <mxCell id="P4btZg3QqWiz5SnPCTn8-241" value="1,1" style="text;html=1;align=center;verticalAlign=middle;resizable=0;points=[];autosize=1;strokeColor=none;fillColor=none;fontFamily=Helvetica;fontSize=11;fontColor=default;labelBackgroundColor=default;" vertex="1" parent="1">
          <mxGeometry x="1200" y="150" width="40" height="30" as="geometry" />
        </mxCell>
        <mxCell id="P4btZg3QqWiz5SnPCTn8-242" value="1,1" style="text;html=1;align=center;verticalAlign=middle;resizable=0;points=[];autosize=1;strokeColor=none;fillColor=none;fontFamily=Helvetica;fontSize=11;fontColor=default;labelBackgroundColor=default;" vertex="1" parent="1">
          <mxGeometry x="1040" y="150" width="40" height="30" as="geometry" />
        </mxCell>
        <mxCell id="P4btZg3QqWiz5SnPCTn8-244" value="Module_Object:{[&lt;u&gt;ID: integer&lt;/u&gt;,&lt;u&gt;ObjectName: String&lt;/u&gt;]}" style="text;html=1;align=left;verticalAlign=middle;resizable=0;points=[];autosize=1;strokeColor=none;fillColor=none;fontFamily=Helvetica;fontSize=11;fontColor=default;labelBackgroundColor=default;" vertex="1" parent="1">
          <mxGeometry x="2010" y="260" width="260" height="30" as="geometry" />
        </mxCell>
        <mxCell id="P4btZg3QqWiz5SnPCTn8-245" value="Module_Object" style="rounded=0;whiteSpace=wrap;html=1;" vertex="1" parent="1">
          <mxGeometry x="1560" y="260" width="120" height="40" as="geometry" />
        </mxCell>
        <mxCell id="P4btZg3QqWiz5SnPCTn8-248" style="edgeStyle=orthogonalEdgeStyle;shape=connector;rounded=0;orthogonalLoop=1;jettySize=auto;html=1;exitX=0.5;exitY=1;exitDx=0;exitDy=0;entryX=0.5;entryY=0;entryDx=0;entryDy=0;strokeColor=default;align=center;verticalAlign=middle;fontFamily=Helvetica;fontSize=11;fontColor=default;labelBackgroundColor=default;endArrow=none;endFill=0;" edge="1" parent="1" source="P4btZg3QqWiz5SnPCTn8-246" target="P4btZg3QqWiz5SnPCTn8-245">
          <mxGeometry relative="1" as="geometry" />
        </mxCell>
        <mxCell id="P4btZg3QqWiz5SnPCTn8-246" value="&lt;u&gt;ModuleID&lt;/u&gt;" style="ellipse;whiteSpace=wrap;html=1;" vertex="1" parent="1">
          <mxGeometry x="1540" y="180" width="80" height="40" as="geometry" />
        </mxCell>
        <mxCell id="P4btZg3QqWiz5SnPCTn8-249" style="edgeStyle=orthogonalEdgeStyle;shape=connector;rounded=0;orthogonalLoop=1;jettySize=auto;html=1;exitX=0.5;exitY=1;exitDx=0;exitDy=0;strokeColor=default;align=center;verticalAlign=middle;fontFamily=Helvetica;fontSize=11;fontColor=default;labelBackgroundColor=default;endArrow=none;endFill=0;" edge="1" parent="1" source="P4btZg3QqWiz5SnPCTn8-247">
          <mxGeometry relative="1" as="geometry">
            <mxPoint x="1620" y="260" as="targetPoint" />
          </mxGeometry>
        </mxCell>
        <mxCell id="P4btZg3QqWiz5SnPCTn8-247" value="&lt;u&gt;ObjectName&lt;/u&gt;" style="ellipse;whiteSpace=wrap;html=1;" vertex="1" parent="1">
          <mxGeometry x="1620" y="180" width="80" height="40" as="geometry" />
        </mxCell>
        <mxCell id="P4btZg3QqWiz5SnPCTn8-251" style="edgeStyle=orthogonalEdgeStyle;shape=connector;rounded=0;orthogonalLoop=1;jettySize=auto;html=1;exitX=0;exitY=0.5;exitDx=0;exitDy=0;entryX=1;entryY=0.25;entryDx=0;entryDy=0;strokeColor=default;align=center;verticalAlign=middle;fontFamily=Helvetica;fontSize=11;fontColor=default;labelBackgroundColor=default;endArrow=none;endFill=0;" edge="1" parent="1" source="P4btZg3QqWiz5SnPCTn8-250" target="P4btZg3QqWiz5SnPCTn8-8">
          <mxGeometry relative="1" as="geometry">
            <Array as="points">
              <mxPoint x="1300" y="370" />
              <mxPoint x="1300" y="370" />
            </Array>
          </mxGeometry>
        </mxCell>
        <mxCell id="P4btZg3QqWiz5SnPCTn8-252" style="edgeStyle=orthogonalEdgeStyle;shape=connector;rounded=0;orthogonalLoop=1;jettySize=auto;html=1;exitX=0.5;exitY=0;exitDx=0;exitDy=0;entryX=0;entryY=0.5;entryDx=0;entryDy=0;strokeColor=default;align=center;verticalAlign=middle;fontFamily=Helvetica;fontSize=11;fontColor=default;labelBackgroundColor=default;endArrow=none;endFill=0;" edge="1" parent="1" source="P4btZg3QqWiz5SnPCTn8-250" target="P4btZg3QqWiz5SnPCTn8-245">
          <mxGeometry relative="1" as="geometry">
            <Array as="points">
              <mxPoint x="1380" y="280" />
            </Array>
          </mxGeometry>
        </mxCell>
        <mxCell id="P4btZg3QqWiz5SnPCTn8-260" style="edgeStyle=orthogonalEdgeStyle;shape=connector;rounded=0;orthogonalLoop=1;jettySize=auto;html=1;exitX=0.5;exitY=1;exitDx=0;exitDy=0;entryX=0;entryY=0;entryDx=0;entryDy=0;strokeColor=default;align=center;verticalAlign=middle;fontFamily=Helvetica;fontSize=11;fontColor=default;labelBackgroundColor=default;endArrow=none;endFill=0;" edge="1" parent="1" source="P4btZg3QqWiz5SnPCTn8-250" target="P4btZg3QqWiz5SnPCTn8-9">
          <mxGeometry relative="1" as="geometry">
            <Array as="points">
              <mxPoint x="1380" y="460" />
            </Array>
          </mxGeometry>
        </mxCell>
        <mxCell id="P4btZg3QqWiz5SnPCTn8-250" value="&lt;font face=&quot;Arial, sans-serif&quot; color=&quot;#202122&quot;&gt;&lt;span style=&quot;font-size: 14px;&quot;&gt;inherits&lt;/span&gt;&lt;/font&gt;" style="rhombus;whiteSpace=wrap;html=1;fontFamily=Helvetica;fontSize=11;fontColor=default;labelBackgroundColor=default;" vertex="1" parent="1">
          <mxGeometry x="1320" y="350" width="120" height="40" as="geometry" />
        </mxCell>
        <mxCell id="P4btZg3QqWiz5SnPCTn8-256" value="1,1" style="text;html=1;align=center;verticalAlign=middle;resizable=0;points=[];autosize=1;strokeColor=none;fillColor=none;fontFamily=Helvetica;fontSize=11;fontColor=default;labelBackgroundColor=default;" vertex="1" parent="1">
          <mxGeometry x="1380" y="320" width="40" height="30" as="geometry" />
        </mxCell>
        <mxCell id="P4btZg3QqWiz5SnPCTn8-257" value="0,*" style="text;html=1;align=center;verticalAlign=middle;resizable=0;points=[];autosize=1;strokeColor=none;fillColor=none;fontFamily=Helvetica;fontSize=11;fontColor=default;labelBackgroundColor=default;" vertex="1" parent="1">
          <mxGeometry x="1280" y="340" width="40" height="30" as="geometry" />
        </mxCell>
        <mxCell id="P4btZg3QqWiz5SnPCTn8-261" value="0,*" style="text;html=1;align=center;verticalAlign=middle;resizable=0;points=[];autosize=1;strokeColor=none;fillColor=none;fontFamily=Helvetica;fontSize=11;fontColor=default;labelBackgroundColor=default;" vertex="1" parent="1">
          <mxGeometry x="1340" y="390" width="40" height="30" as="geometry" />
        </mxCell>
      </root>
    </mxGraphModel>
  </diagram>
</mxfile>
